<?xml version="1.0" encoding="utf-8"?>
<!-- Generator: Adobe Illustrator 27.9.0, SVG Export Plug-In . SVG Version: 6.00 Build 0)  -->
<svg version="1.1" xmlns="http://www.w3.org/2000/svg" xmlns:xlink="http://www.w3.org/1999/xlink" x="0px" y="0px"
	 viewBox="0 0 32 32" style="enable-background:new 0 0 32 32;" xml:space="preserve">
<style type="text/css">
	.st0{fill:#4B49E7;}
	.st1{fill:#FFFFFF;}
</style>
<g id="Layer_2">
	<rect class="st0" width="32" height="32"/>
</g>
<g id="Layer_1">
	<g>
		<path class="st1" d="M16,4.4c2.6,0,4.7,0.6,6.2,1.8c1.5,1.2,2.2,2.9,2.2,5c0,1.2-0.3,2.2-0.9,3c-0.6,0.9-1.5,1.5-2.7,2.1
			c1.4,0.4,2.3,1.1,2.9,2c0.6,0.9,0.9,2.1,0.9,3.5V23c0,0.5,0.1,0.9,0.3,1.2c0.2,0.3,0.5,0.4,1,0.5l0.6,0.1v2.8H24
			c-1.5,0-2.6-0.4-3.2-1.2c-0.6-0.8-0.9-1.9-0.9-3.2v-1.3c0-1.1-0.3-2-0.9-2.6s-1.4-1-2.5-1h-3.8v6.1l2.5,0.5v2.8H5.6v-2.8l2.5-0.5
			V7.7L5.6,7.2V4.4h2.5H16z M12.7,14.6h3.2c1.3,0,2.3-0.3,2.9-0.8c0.6-0.5,1-1.3,1-2.4s-0.3-1.9-1-2.5C18.2,8.3,17.2,8,16,8h-3.3
			V14.6z"/>
	</g>
</g>
</svg>
