<?xml version="1.0" encoding="utf-8"?>
<!-- Generator: Adobe Illustrator 27.9.0, SVG Export Plug-In . SVG Version: 6.00 Build 0)  -->
<svg version="1.1" id="Layer_1" xmlns="http://www.w3.org/2000/svg" xmlns:xlink="http://www.w3.org/1999/xlink" x="0px" y="0px"
	 viewBox="0 0 57 6" style="enable-background:new 0 0 57 6;" xml:space="preserve">
<style type="text/css">
	.st0{fill-rule:evenodd;clip-rule:evenodd;fill:#FFFFFF;}
</style>
<path class="st0" d="M53.8,2.6C53,1.4,52.1,0,50.4,0S47.7,1.4,47,2.6c-0.7,1.2-1.2,1.9-2.2,1.9s-1.4-0.8-2.2-1.9S41,0,39.2,0
	s-2.7,1.4-3.4,2.6c-0.7,1.2-1.3,1.9-2.2,1.9s-1.4-0.8-2.2-1.9C30.6,1.4,29.8,0,28,0c-1.8,0-2.7,1.4-3.4,2.6s-1.2,1.9-2.2,1.9
	s-1.4-0.8-2.2-1.9C19.4,1.4,18.6,0,16.8,0s-2.7,1.4-3.4,2.6s-1.2,1.9-2.2,1.9S9.8,3.8,9,2.6S7.4,0,5.6,0S2.9,1.4,2.2,2.6
	S1,4.5,0,4.5V6c1.8,0,2.7-1.4,3.4-2.6s1.2-1.9,2.2-1.9S7,2.2,7.8,3.4S9.4,6,11.2,6s2.7-1.4,3.4-2.6s1.2-1.9,2.2-1.9s1.4,0.8,2.2,1.9
	C19.7,4.6,20.6,6,22.4,6s2.7-1.4,3.4-2.6S27,1.5,28,1.5s1.4,0.8,2.2,1.9C30.9,4.6,31.8,6,33.6,6s2.7-1.4,3.4-2.6
	c0.7-1.2,1.2-1.9,2.2-1.9s1.4,0.8,2.2,1.9C42.1,4.6,43,6,44.8,6s2.7-1.4,3.4-2.6c0.7-1.2,1.2-1.9,2.2-1.9s1.4,0.8,2.2,1.9
	C53.3,4.6,54.2,6,55.9,6h0.3V4.5c-0.1,0-0.2,0-0.3,0C55,4.5,54.5,3.8,53.8,2.6z"/>
</svg>
